<?xml version="1.0" ?><svg width="24px" height="24px" viewBox="0 0 24 24" id="SVGRoot" version="1.1" xmlns="http://www.w3.org/2000/svg" xmlns:cc="http://creativecommons.org/ns#" xmlns:dc="http://purl.org/dc/elements/1.1/" xmlns:inkscape="http://www.inkscape.org/namespaces/inkscape" xmlns:rdf="http://www.w3.org/1999/02/22-rdf-syntax-ns#" xmlns:sodipodi="http://sodipodi.sourceforge.net/DTD/sodipodi-0.dtd" xmlns:svg="http://www.w3.org/2000/svg"><defs id="defs2"/><g id="layer1"><path d="M 9 3.5 A 1.0001 1.0001 0 0 0 8.1679688 3.9453125 L 6.4648438 6.5 L 3 6.5 A 1.0001 1.0001 0 0 0 2 7.5 L 2 19.5 A 1.0001 1.0001 0 0 0 3 20.5 L 21 20.5 A 1.0001 1.0001 0 0 0 22 19.5 L 22 7.5 A 1.0001 1.0001 0 0 0 21 6.5 L 17.535156 6.5 L 15.832031 3.9453125 A 1.0001 1.0001 0 0 0 15 3.5 L 9 3.5 z M 9.5351562 5.5 L 14.464844 5.5 L 15.130859 6.5 L 8.8691406 6.5 L 9.5351562 5.5 z M 4 8.5 L 7 8.5 L 17 8.5 L 20 8.5 L 20 18.5 L 4 18.5 L 4 8.5 z M 12 9.5 C 9.8027056 9.5 8 11.302706 8 13.5 C 8 15.697294 9.8027056 17.5 12 17.5 C 14.059067 17.5 15.712602 15.897947 15.919922 13.890625 A 1 1 0 0 0 16 13.5 A 1 1 0 0 0 15.921875 13.115234 C 15.717453 11.104965 14.061192 9.5 12 9.5 z M 12 11.5 C 13.116414 11.5 14 12.383586 14 13.5 C 14 14.616414 13.116414 15.5 12 15.5 C 10.883586 15.5 10 14.616414 10 13.5 C 10 12.383586 10.883586 11.5 12 11.5 z " id="path10636" style="color:#000000;font-style:normal;font-variant:normal;font-weight:normal;font-stretch:normal;font-size:medium;line-height:normal;font-family:sans-serif;font-variant-ligatures:normal;font-variant-position:normal;font-variant-caps:normal;font-variant-numeric:normal;font-variant-alternates:normal;font-variant-east-asian:normal;font-feature-settings:normal;font-variation-settings:normal;text-indent:0;text-align:start;text-decoration:none;text-decoration-line:none;text-decoration-style:solid;text-decoration-color:#000000;letter-spacing:normal;word-spacing:normal;text-transform:none;writing-mode:lr-tb;direction:ltr;text-orientation:mixed;dominant-baseline:auto;baseline-shift:baseline;text-anchor:start;white-space:normal;shape-padding:0;shape-margin:0;inline-size:0;clip-rule:nonzero;display:inline;overflow:visible;visibility:visible;isolation:auto;mix-blend-mode:normal;color-interpolation:sRGB;color-interpolation-filters:linearRGB;solid-color:#000000;solid-opacity:1;vector-effect:none;fill:#000000;fill-opacity:1;fill-rule:nonzero;stroke:none;stroke-width:2;stroke-linecap:round;stroke-linejoin:round;stroke-miterlimit:4;stroke-dasharray:none;stroke-dashoffset:0;stroke-opacity:1;color-rendering:auto;image-rendering:auto;shape-rendering:auto;text-rendering:auto;enable-background:accumulate;stop-color:#000000;stop-opacity:1;opacity:1"/></g></svg>