<svg xmlns="http://www.w3.org/2000/svg" width="120.675" height="119.274" viewBox="0 0 120.675 119.274">
  <g id="contact_icon_phone" transform="translate(-234 -12233.396)">
    <ellipse id="Ellipse_235" data-name="Ellipse 235" cx="52.335" cy="52.335" rx="52.335" ry="52.335" transform="translate(234 12248)" fill="#6e9ec6"/>
    <g id="Group_375" data-name="Group 375" transform="matrix(-0.978, -0.208, 0.208, -0.978, 337.599, 12330.313)">
      <path id="Path_750" data-name="Path 750" d="M31.157,0h0A28.132,28.132,0,0,0,18.193,3.287a41.227,41.227,0,0,0-9.68,7.1A52.734,52.734,0,0,0,.239,20.652a1.777,1.777,0,0,0-.081,1.622C2.5,27.445,8.54,30.686,12.535,32.83A28.727,28.727,0,0,1,15.1,34.3a16.071,16.071,0,0,1,1.28,1.094c1.44,1.307,3.232,2.933,5.385,2.933a4.4,4.4,0,0,0,3.073-1.295,10.2,10.2,0,0,0,2.23-3.476c1.749-4.095,3.54-4.437,5.221-4.437a22.243,22.243,0,0,1,2.933.285c.716.1,1.455.2,2.233.273.69.063,2.142.56,5.136,2.566,2.337,1.566,5.013,3.64,7.6,5.646a80.665,80.665,0,0,0,9.927,7.023,5.443,5.443,0,0,1,3.162,4.412,9.038,9.038,0,0,1-3.454,7.444c-5.5,4.471-4.093,9.336-4.031,9.541a1.76,1.76,0,0,0,.477.771,85.957,85.957,0,0,0,7.175,5.962c5.534,4.1,9.978,6.172,13.205,6.172a6.017,6.017,0,0,0,3.077-.775c3.324-1.943,6.593-7.366,8.738-14.505,2.243-7.462,2.727-15.117,1.325-21A26.4,26.4,0,0,0,85.3,33.452a51.308,51.308,0,0,0-8.657-8.974C70.352,19.2,61.628,13.413,46.53,4.514A30.165,30.165,0,0,0,31.157,0ZM3.814,21.624a51.6,51.6,0,0,1,7.232-8.754,37.564,37.564,0,0,1,8.819-6.453A24.593,24.593,0,0,1,31.154,3.548h0a26.68,26.68,0,0,1,13.57,4.023c14.919,8.792,23.5,14.477,29.628,19.623a47.784,47.784,0,0,1,8.066,8.34,22.9,22.9,0,0,1,3.917,8.215c1.26,5.3.8,12.279-1.272,19.159-1.809,6.02-4.674,11.029-7.132,12.464a2.527,2.527,0,0,1-1.286.29c-2.382,0-6.322-1.945-11.093-5.476-2.97-2.2-5.459-4.413-6.422-5.292-.066-.889.114-3.09,2.926-5.377A12.539,12.539,0,0,0,66.807,48.97a9.028,9.028,0,0,0-5.04-7.2,80.421,80.421,0,0,1-9.406-6.687c-5.719-4.435-11.121-8.623-14.586-8.941-.692-.064-1.391-.161-2.066-.254a24.774,24.774,0,0,0-3.421-.318c-3.92,0-6.539,2.032-8.487,6.59-.69,1.614-1.471,2.617-2.039,2.617-.783,0-2.065-1.163-3-2.013a18.758,18.758,0,0,0-1.6-1.348A29.256,29.256,0,0,0,14.212,29.7C10.88,27.916,5.962,25.276,3.814,21.624Z" transform="translate(0 0)" fill="#4f5052" stroke="#4f5052" stroke-linecap="round" stroke-linejoin="round" stroke-width="1"/>
      <path id="Path_751" data-name="Path 751" d="M1.776,0A1.774,1.774,0,0,0,.686,3.175L20.359,18.46a1.774,1.774,0,1,0,2.176-2.8L2.862.373A1.766,1.766,0,0,0,1.776,0Z" transform="translate(5.071 13.18)" fill="#4f5052" stroke="#4f5052" stroke-linecap="round" stroke-linejoin="round" stroke-width="1"/>
      <path id="Path_752" data-name="Path 752" d="M1.776,0a1.774,1.774,0,0,0-1,3.241L19.7,16.112a1.774,1.774,0,1,0,2-2.934L2.773.307A1.768,1.768,0,0,0,1.776,0Z" transform="translate(61.688 55.964)" fill="#4f5052" stroke="#4f5052" stroke-linecap="round" stroke-linejoin="round" stroke-width="1"/>
    </g>
  </g>
</svg>
