<svg xmlns="http://www.w3.org/2000/svg" width="119.869" height="123.17" viewBox="0 0 119.869 123.17">
  <g id="contact_icon_web" transform="translate(-1498 -12229.5)">
    <ellipse id="Ellipse_234" data-name="Ellipse 234" cx="52.335" cy="52.335" rx="52.335" ry="52.335" transform="translate(1498 12248)" fill="#86b0a8"/>
    <g id="Group_373" data-name="Group 373" transform="translate(1512.999 12230)">
      <path id="Path_943" data-name="Path 943" d="M52.185,3.548A48.65,48.65,0,0,0,33.254,97,48.65,48.65,0,0,0,71.115,7.369a48.329,48.329,0,0,0-18.93-3.821m0-3.548A52.185,52.185,0,1,1,0,52.185,52.185,52.185,0,0,1,52.185,0Z" transform="translate(0.001 0)" fill="#4f5052" stroke="#4f5052" stroke-linecap="round" stroke-linejoin="round" stroke-width="1"/>
      <path id="Path_944" data-name="Path 944" d="M10008.92,2253.768c-8.3,0-13.088-1.867-13.67-2.107a8.367,8.367,0,0,1-3.213-2.275c-1.336-1.528-2.645-4.228-1.363-8.4.822-2.679.408-3.76.2-4.1a1.082,1.082,0,0,0-.381-.357,13.134,13.134,0,0,0-4.012,2.473c-1.736,1.7-5.217,2.522-8.094,1.91a7.742,7.742,0,0,1-5.76-4.859c-.746-1.885-1.605-3.051-2.494-3.37a3.115,3.115,0,0,0-2.482.51,11.221,11.221,0,0,1-8.484.379,6.469,6.469,0,0,1-4.039-3.713,1.772,1.772,0,1,1,3.307-1.273,3.037,3.037,0,0,0,1.953,1.654,7.841,7.841,0,0,0,5.555-.158,6.454,6.454,0,0,1,5.4-.738c1.924.7,3.426,2.463,4.59,5.406a4.187,4.187,0,0,0,3.2,2.691,6.135,6.135,0,0,0,4.867-.972,17.331,17.331,0,0,1,5.83-3.481,1.667,1.667,0,0,1,.564-.1c.041,0,.078,0,.123,0a4.52,4.52,0,0,1,3.254,1.938c1.15,1.672,1.254,4.095.295,7.2-.633,2.05-.437,3.712.574,4.939a4.9,4.9,0,0,0,1.85,1.371,1.177,1.177,0,0,1,.111.043c.035.017,4.453,1.841,12.334,1.841.348,0,.7,0,1.057-.01,2.268-.046,3.807-.552,4.338-1.42.668-1.091-.125-2.833-.168-2.931a.73.73,0,0,1-.088-.2c-.051-.143-5.123-14.39-7.2-21.246-1.689-5.586-9.2-5.743-9.271-5.744a1.745,1.745,0,0,1-.246-.021c-.043-.006-4.3-.659-9.836-1.447-2.357-.334-3.955-1.292-4.744-2.849a5.96,5.96,0,0,1,.209-5.1,1.836,1.836,0,0,1,.24-.341,5.176,5.176,0,0,0,.922-1.8,3.411,3.411,0,0,0-.9-3.376c-2.08-2.291-3.008-4.3-3.018-6.521-.012-2.162.836-4.456,2.82-7.676,2.5-4.049.7-14.452-.213-18.117a1.774,1.774,0,0,1,3.443-.855,63.069,63.069,0,0,1,1.334,7.892c.615,5.935.1,10.291-1.547,12.944-3.193,5.169-2.85,7.019-.2,9.953a6.958,6.958,0,0,1,1.65,6.86,8.734,8.734,0,0,1-1.449,2.818,2.357,2.357,0,0,0-.135,1.713c.236.453.979.788,2.08.944,5.074.721,9.074,1.332,9.771,1.437a18.185,18.185,0,0,1,5.129,1.02,11.116,11.116,0,0,1,7.348,7.244c1.969,6.492,6.682,19.771,7.115,20.991.324.687,1.543,3.647-.014,6.23-1.207,2.014-3.672,3.07-7.307,3.145C10009.678,2253.765,10009.291,2253.768,10008.92,2253.768Z" transform="translate(-9953.453 -2164.144)" fill="#4f5052" stroke="#4f5052" stroke-linecap="round" stroke-linejoin="round" stroke-width="1"/>
      <path id="Path_946" data-name="Path 946" d="M10015.572,2239.567a4.26,4.26,0,0,1-2.048-.528,7.149,7.149,0,0,1-3.037-4.177,13.221,13.221,0,0,1-.725-3.718,16.9,16.9,0,0,0-1.036-4.176,17.372,17.372,0,0,0-3.148-5.639c-2.1-2.3-7.073-2.461-8.806-2.328-.04,0-.089.005-.131.005a1.786,1.786,0,0,1-.821-.2c-2.752-1.426-3.443-3.261-3.538-4.55-.232-3.077,2.678-5.7,3.742-6.547a8.173,8.173,0,0,0,.818-2.859,5.1,5.1,0,0,0-2.742-4.981,8.777,8.777,0,0,1-3.721-4.505,10.669,10.669,0,0,1-.488-4.852,16.456,16.456,0,0,1,.884-3.7l-.978-.548a1.836,1.836,0,0,1-.274-.194c-2.939-2.5-4.373-5.339-4.258-8.445.233-6.048,6.457-10.629,6.714-10.821a1.775,1.775,0,0,1,2.089,2.87h0c-.049.037-5.1,3.774-5.253,8.1-.07,1.946.872,3.743,2.874,5.486l2.2,1.237a1.779,1.779,0,0,1,.709,2.365,13.163,13.163,0,0,0-1.19,4.136c-.283,2.687.563,4.608,2.57,5.871a9.388,9.388,0,0,1,3.733,4.109,8.544,8.544,0,0,1,.654,4.314,11.362,11.362,0,0,1-1.452,4.522,1.857,1.857,0,0,1-.471.512c-1.11.813-2.711,2.544-2.624,3.67.045.576.634,1.076,1.239,1.443a23.173,23.173,0,0,1,3.754.191c3.3.446,5.789,1.56,7.385,3.311,3.541,3.879,5.11,10.388,5.11,12.206,0,1.076.765,4.15,1.923,4.781.123.067.488.268,1.417-.327,1.621-1.037,3.569-4.622,5.2-9.589,1.567-4.748,2.26-8.945,2.152-10.149-.323-3.823-3.979-7.635-10.872-11.329a11.659,11.659,0,0,1-4.127-3.292,4.424,4.424,0,0,1-.754-3.882c.882-3.038,5.008-4.746,6.723-4.746.058,0,.111,0,.156.005a7.455,7.455,0,0,1,2.446.885c2.858,1.347,7.648,3.6,11.681.581a1.774,1.774,0,1,1,2.124,2.842c-5.739,4.3-12.207,1.25-15.313-.214-.431-.2-.947-.444-1.2-.54a6.191,6.191,0,0,0-1.829.777,2.886,2.886,0,0,0-1.385,1.447c-.119.544.644,1.658,3.16,3.009a32.463,32.463,0,0,1,9.728,7.356,12.286,12.286,0,0,1,3,6.8c.171,2.083-.8,6.943-2.317,11.556-1.368,4.166-3.64,9.538-6.661,11.471A5.529,5.529,0,0,1,10015.572,2239.567Z" transform="translate(-9933.51 -2165.957)" fill="#4f5052" stroke="#4f5052" stroke-linecap="round" stroke-linejoin="round" stroke-width="1"/>
    </g>
  </g>
</svg>
