<svg xmlns="http://www.w3.org/2000/svg" width="623.697" height="412.877" viewBox="0 0 623.697 412.877">
  <g id="header_logo_illustration" transform="translate(-16363.62 1193)">
    <g id="mic_2" transform="translate(16427.621 -1009.744)">
      <g id="Ellipse_8" data-name="Ellipse 8" transform="translate(379.49 0)" fill="none" stroke="#3db5c7" stroke-linejoin="round" stroke-width="3">
        <ellipse cx="62.377" cy="114.81" rx="62.377" ry="114.81" stroke="none"/>
        <ellipse cx="62.377" cy="114.81" rx="60.877" ry="113.31" fill="none"/>
      </g>
      <path id="Path_15" data-name="Path 15" d="M-769.5,770l-431.207,110.946L-769.5,992.839" transform="translate(1200.711 -766.454)" fill="none" stroke="#3db5c7" stroke-linejoin="round" stroke-width="3"/>
    </g>
    <g id="mic_1" transform="translate(16363.62 -1193.744)">
      <g id="Ellipse_8-2" data-name="Ellipse 8" transform="translate(0 0.744)" fill="none" stroke="#3db5c7" stroke-linejoin="round" stroke-width="4">
        <ellipse cx="62.377" cy="114.81" rx="62.377" ry="114.81" stroke="none"/>
        <ellipse cx="62.377" cy="114.81" rx="60.377" ry="112.81" fill="none"/>
      </g>
      <path id="Path_15-2" data-name="Path 15" d="M-1200.711,770-769.67,880.284l-431.041,111.224" transform="translate(1273.914 -764.836)" fill="none" stroke="#3db5c7" stroke-linejoin="round" stroke-width="4"/>
    </g>
    <g id="letter_N" transform="translate(1143.136 114.283)">
      <rect id="Rectangle_311" data-name="Rectangle 311" width="68" height="116.555" transform="translate(15640.695 -1068)" fill="#f76bc5"/>
      <path id="Path_1647" data-name="Path 1647" d="M14494.949-1067.856h-23.011v116.165h23.011v-69.891l44.732,69.891v-45.257Z" transform="translate(1168.757 0.246)" fill="#4f5052" stroke="#4f5052" stroke-width="1"/>
    </g>
    <g id="letter_N-2" data-name="letter_N" transform="translate(726.778 -67.168)">
      <rect id="Rectangle_311-2" data-name="Rectangle 311" width="68" height="116.555" transform="translate(15640.695 -1068)" fill="#f76bc5"/>
      <path id="Path_1647-2" data-name="Path 1647" d="M14494.949-1067.856h-23.011v116.165h23.011v-69.891l44.732,69.891v-45.257Z" transform="translate(1168.757 0.246)" fill="#4f5052" stroke="#4f5052" stroke-width="1"/>
    </g>
    <g id="letter_N-3" data-name="letter_N" transform="translate(1190.708 -67.168)">
      <rect id="Rectangle_311-3" data-name="Rectangle 311" width="68" height="116.555" transform="translate(15640.695 -1068)" fill="#f76bc5"/>
      <path id="Path_1647-3" data-name="Path 1647" d="M14494.949-1067.856h-23.011v116.165h23.011v-69.891l44.732,69.891v-45.257Z" transform="translate(1168.757 0.246)" fill="#4f5052" stroke="#4f5052" stroke-width="1"/>
    </g>
    <g id="letter_H" transform="translate(138.526 584.798)">
      <rect id="Rectangle_312" data-name="Rectangle 312" width="32" height="58.782" transform="translate(16426.695 -1479.73)" fill="#f76bc5"/>
      <g id="Rectangle_313" data-name="Rectangle 313" transform="translate(16408.695 -1538.512)" fill="#4f5052" stroke="#4f5052" stroke-width="1">
        <rect width="24" height="117.564" stroke="none"/>
        <rect x="0.5" y="0.5" width="23" height="116.564" fill="none"/>
      </g>
      <g id="Rectangle_314" data-name="Rectangle 314" transform="translate(16453.695 -1538.512)" fill="#4f5052" stroke="#4f5052" stroke-width="1">
        <rect width="24" height="117.564" stroke="none"/>
        <rect x="0.5" y="0.5" width="23" height="116.564" fill="none"/>
      </g>
    </g>
    <g id="letter_Y" transform="translate(576.053 -536.138)">
      <path id="Path_1640" data-name="Path 1640" d="M14864.992-599.752h74.548L14906-533.3Z" transform="translate(1168.695)" fill="#f76bc5"/>
      <path id="Path_1648" data-name="Path 1648" d="M14845.354-599.214h23.908l36.416,65.8v51.242h-22.75v-51.242Z" transform="translate(1168.695)" fill="#4f5052" stroke="#4f5052" stroke-width="1"/>
    </g>
    <g id="letter_C" transform="translate(206.091 820.879)">
      <path id="Path_1645" data-name="Path 1645" d="M15095.612-1678.351v-73.972h-37.257v73.972Z" transform="translate(1168.695 -0.944)" fill="#f76bc5"/>
      <path id="Path_1649" data-name="Path 1649" d="M15119.221-1741.765l15.8-16.587s-28.569-29.186-69.614-9.314-26.5,71.656-26.5,71.656,13.786,40.784,56.655,38.34v-23.588s-43.107,1.572-34.312-48.188c0,0,5.046-19.346,28.658-22.041C15089.908-1751.489,15107.692-1754.165,15119.221-1741.765Z" transform="translate(1168.695)" fill="#4f5052" stroke="#4f5052" stroke-width="1"/>
    </g>
    <g id="letter_U" transform="translate(643.523 -120.714)">
      <rect id="Rectangle_307" data-name="Rectangle 307" width="36.386" height="99.801" transform="translate(16040.386 -833)" fill="#f76bc5"/>
      <path id="Path_1650" data-name="Path 1650" d="M14853.563-832.307h22.774v74.137s-.138,19.723,11.618,19.634,11.206-11.461,10.857-19.634,0-74.137,0-74.137h23.013v76.137s4.988,39.99-31.606,39.286-36.656-39.286-36.656-39.286Z" transform="translate(1168.695 0.028)" fill="#4f5052"/>
    </g>
    <g id="letter_G" transform="translate(683.009 589.226)">
      <path id="Path_1646" data-name="Path 1646" d="M15083.632-1490.095v-52.829s-52.153-2.64-56.708,52.829l18.753,44.463h70.47l1.662-44.463Z" transform="translate(1168.693)" fill="#f76bc5"/>
      <path id="Path_1651" data-name="Path 1651" d="M15111.193-1467.158h-27.711v-21.652h51.278s7.827,64.114-51.278,63.7-56.632-63.7-56.632-63.7h22.752s-2.777,44.593,33.88,43.391C15083.482-1445.419,15108.393-1446.014,15111.193-1467.158Z" transform="translate(1168.695 -1.284)" fill="#4f5052" stroke="#4f5052" stroke-width="1"/>
    </g>
    <rect id="letter_I" width="24" height="116.555" transform="translate(16503.383 -1135.168)" fill="#4f5052"/>
    <rect id="letter_I-2" data-name="letter_I" width="24" height="116.555" transform="translate(16739.492 -1135.168)" fill="#4f5052"/>
  </g>
</svg>
